# xmcd
#
# Track frame offsets: 
#        150
#        14732
#        33948
#        53084
#        66777
#        86086
#        96496
#        114478
#        129622
#        143946
#        164746
#        183087
#        197978
#        212894
#        226086
#        246700
#        265579
#        284583
#        303884
#        320370
#        345293
#
# Disc length: 4747 seconds
#
# Revision: 0
# Processed by: cddbd v1.5.2PL0 Copyright (c) Steve Scherf et al.
# Submitted via: ExactAudioCopy v0.99pb5
#
DISCID=3c128915
DTITLE=Сборник - Золотой генофонд Украины CD 2
DYEAR=2006
DGENRE=Pop-Folk
TTITLE0=Ти моя Україна - Т. Повалий&Н. Басков
TTITLE1=Видiрватись вiд землi - Н. Могилевская
TTITLE2=Я же его любила - С. Ротару
TTITLE3=Герои - Арктика
TTITLE4=Чёрный ангел - С. Лобода 
TTITLE5=Нам казали - Скрябiн
TTITLE6=Зозуля - B&B
TTITLE7=Країна - О. Пономарьов
TTITLE8=Я не плачу - XS
TTITLE9=Хвилюватися немає причин - Бумбокс
TTITLE10=Iграшка - А. Рудницька
TTITLE11=Облака - An.Gel
TTITLE12=Облака - 4 Короля
TTITLE13=Я не люблю - Blackout
TTITLE14=Своє кiно - Недiля feat. Фоззi
TTITLE15=Чорноморець - Тартак
TTITLE16=Квiти - Нумер 482
TTITLE17=Мушу йти - Танок на майданi Конго
TTITLE18=Прямо (Мати крила...) - Флайzzzа
TTITLE19=Тебя не помню - Ж. Делиев и ВИА Качели-Качели 
TTITLE20=Data
EXTD=
EXTT0=
EXTT1=
EXTT2=
EXTT3=
EXTT4=
EXTT5=
EXTT6=
EXTT7=
EXTT8=
EXTT9=
EXTT10=
EXTT11=
EXTT12=
EXTT13=
EXTT14=
EXTT15=
EXTT16=
EXTT17=
EXTT18=
EXTT19=
EXTT20=
PLAYORDER=
